<svg preserveAspectRatio="none" width="100%" height="100%" overflow="visible" style="display: block;" viewBox="0 0 32.5 32.5" fill="none" xmlns="http://www.w3.org/2000/svg">
<path id="Vector" d="M7.85333 0.285C9.98 0 12.7 0 16.155 0H16.345C19.8 0 22.52 0 24.645 0.285C26.8283 0.578333 28.5683 1.19333 29.9367 2.56333C31.3067 3.93167 31.92 5.67333 32.215 7.85333C32.5 9.98 32.5 12.7 32.5 16.155V16.345C32.5 19.8 32.5 22.52 32.215 24.645C31.9217 26.8283 31.3067 28.5683 29.9367 29.9367C28.5683 31.3067 26.8267 31.92 24.6467 32.215C22.52 32.5 19.8 32.5 16.345 32.5H16.155C12.7 32.5 9.98 32.5 7.855 32.215C5.67167 31.9217 3.93167 31.3067 2.56333 29.9367C1.19333 28.5683 0.58 26.8267 0.285 24.6467C0 22.52 0 19.8 0 16.345V16.155C0 12.7 0 9.98 0.285 7.855C0.578333 5.67167 1.19333 3.93167 2.56333 2.56333C3.93167 1.19333 5.67333 0.58 7.85333 0.285ZM15.8083 7.67167C15.7552 7.40797 15.6185 7.16843 15.4184 6.98864C15.2183 6.80885 14.9656 6.69839 14.6977 6.67369C14.4299 6.64898 14.1612 6.71134 13.9316 6.85149C13.702 6.99165 13.5238 7.20213 13.4233 7.45167L10.4033 15H7.91667C7.58515 15 7.2672 15.1317 7.03278 15.3661C6.79836 15.6005 6.66667 15.9185 6.66667 16.25C6.66667 16.5815 6.79836 16.8995 7.03278 17.1339C7.2672 17.3683 7.58515 17.5 7.91667 17.5H11.25C11.4998 17.4998 11.7439 17.4248 11.9506 17.2845C12.1574 17.1443 12.3174 16.9454 12.41 16.7133L14.1817 12.285L16.6917 24.8283C16.7448 25.092 16.8815 25.3316 17.0816 25.5114C17.2817 25.6912 17.5344 25.8016 17.8023 25.8263C18.0701 25.851 18.3388 25.7887 18.5684 25.6485C18.798 25.5084 18.9762 25.2979 19.0767 25.0483L22.0967 17.5H24.5833C24.9149 17.5 25.2328 17.3683 25.4672 17.1339C25.7016 16.8995 25.8333 16.5815 25.8333 16.25C25.8333 15.9185 25.7016 15.6005 25.4672 15.3661C25.2328 15.1317 24.9149 15 24.5833 15H21.25C21.0004 15.0001 20.7565 15.0749 20.5497 15.2148C20.343 15.3547 20.1829 15.5533 20.09 15.785L18.3167 20.2167L15.8083 7.67167Z" fill="var(--fill-0, #E6E6E6)"/>
</svg>
