<svg preserveAspectRatio="none" width="100%" height="100%" overflow="visible" style="display: block;" viewBox="0 0 28.6667 28.6667" fill="none" xmlns="http://www.w3.org/2000/svg">
<g id="Group">
<path id="Vector" d="M1 24.3333C1 22.5652 1.70238 20.8695 2.95262 19.6193C4.20286 18.369 5.89856 17.6667 7.66667 17.6667H21C22.7681 17.6667 24.4638 18.369 25.714 19.6193C26.9643 20.8695 27.6667 22.5652 27.6667 24.3333C27.6667 25.2174 27.3155 26.0652 26.6904 26.6904C26.0652 27.3155 25.2174 27.6667 24.3333 27.6667H4.33333C3.44928 27.6667 2.60143 27.3155 1.97631 26.6904C1.35119 26.0652 1 25.2174 1 24.3333Z" stroke="var(--stroke-0, #E6E6E6)" stroke-width="2" stroke-linejoin="round"/>
<path id="Vector_2" d="M14.3333 11C17.0948 11 19.3333 8.76142 19.3333 6C19.3333 3.23858 17.0948 1 14.3333 1C11.5719 1 9.33333 3.23858 9.33333 6C9.33333 8.76142 11.5719 11 14.3333 11Z" stroke="var(--stroke-0, #E6E6E6)" stroke-width="2"/>
</g>
</svg>
