<svg preserveAspectRatio="none" width="100%" height="100%" overflow="visible" style="display: block;" viewBox="0 0 29.6667 29.6667" fill="none" xmlns="http://www.w3.org/2000/svg">
<path id="Vector" d="M1.5 8.16667V4.83333C1.5 3.94928 1.85119 3.10143 2.47631 2.47631C3.10143 1.85119 3.94928 1.5 4.83333 1.5H8.16667M1.5 21.5V24.8333C1.5 25.7174 1.85119 26.5652 2.47631 27.1904C3.10143 27.8155 3.94928 28.1667 4.83333 28.1667H8.16667M21.5 1.5H24.8333C25.7174 1.5 26.5652 1.85119 27.1904 2.47631C27.8155 3.10143 28.1667 3.94928 28.1667 4.83333V8.16667M21.5 28.1667H24.8333C25.7174 28.1667 26.5652 27.8155 27.1904 27.1904C27.8155 26.5652 28.1667 25.7174 28.1667 24.8333V21.5M6.5 14.8333H23.1667" stroke="var(--stroke-0, white)" stroke-width="3" stroke-linecap="round" stroke-linejoin="round"/>
</svg>
