<svg preserveAspectRatio="none" width="100%" height="100%" overflow="visible" style="display: block;" viewBox="0 0 13.3328 13.3272" fill="none" xmlns="http://www.w3.org/2000/svg">
<path id="Vector" d="M9.4821 1.35045C9.81362 1.01909 10.2633 0.832935 10.7321 0.832935C11.2009 0.832935 11.6506 1.01909 11.9821 1.35045C12.3136 1.68182 12.4999 2.13124 12.4999 2.59986C12.4999 3.06847 12.3136 3.5179 11.9821 3.84926L4.47127 11.3573C4.27339 11.5549 4.02894 11.6996 3.76043 11.778L1.36627 12.4776C1.29456 12.4985 1.21855 12.4998 1.14619 12.4813C1.07383 12.4627 1.00779 12.4251 0.954973 12.3723C0.902156 12.3195 0.864509 12.2535 0.845971 12.1812C0.827433 12.1089 0.828687 12.0329 0.849601 11.9612L1.5496 9.56819C1.62837 9.30002 1.77338 9.05598 1.97127 8.85853L9.4821 1.35045Z" stroke="var(--stroke-0, #0E6BA8)" stroke-width="1.66587" stroke-linecap="round" stroke-linejoin="round"/>
</svg>
