<svg preserveAspectRatio="none" width="100%" height="100%" overflow="visible" style="display: block;" viewBox="0 0 19.9904 19.9904" fill="none" xmlns="http://www.w3.org/2000/svg">
<g id="Icon" clip-path="url(#clip0_0_39)">
<path id="Vector" d="M8.55257 17.4916C8.69879 17.7449 8.90908 17.9551 9.16232 18.1013C9.41555 18.2475 9.70281 18.3245 9.99522 18.3245C10.2876 18.3245 10.5749 18.2475 10.8281 18.1013C11.0813 17.9551 11.2916 17.7449 11.4379 17.4916" stroke="var(--stroke-0, #99A1AF)" stroke-width="1.66587" stroke-linecap="round" stroke-linejoin="round"/>
<path id="Vector_2" d="M2.71703 12.7656C2.60822 12.8848 2.53641 13.0331 2.51034 13.1925C2.48428 13.3518 2.50507 13.5152 2.57019 13.663C2.63532 13.8107 2.74197 13.9363 2.87717 14.0245C3.01237 14.1127 3.1703 14.1598 3.33174 14.1599H16.6587C16.8201 14.1599 16.9781 14.1131 17.1134 14.025C17.2487 13.937 17.3554 13.8115 17.4207 13.6639C17.486 13.5163 17.507 13.3528 17.4812 13.1935C17.4553 13.0342 17.3837 12.8858 17.2751 12.7664C16.1673 11.6244 14.9928 10.4109 14.9928 6.66348C14.9928 5.33803 14.4663 4.06687 13.5291 3.12964C12.5918 2.1924 11.3207 1.66587 9.99522 1.66587C8.66977 1.66587 7.39861 2.1924 6.46137 3.12964C5.52414 4.06687 4.99761 5.33803 4.99761 6.66348C4.99761 10.4109 3.82234 11.6244 2.71703 12.7656Z" stroke="var(--stroke-0, #99A1AF)" stroke-width="1.66587" stroke-linecap="round" stroke-linejoin="round"/>
</g>
<defs>
<clipPath id="clip0_0_39">
<rect width="19.9904" height="19.9904" fill="white"/>
</clipPath>
</defs>
</svg>
