<svg preserveAspectRatio="none" width="100%" height="100%" overflow="visible" style="display: block;" viewBox="0 0 35 31.2486" fill="none" xmlns="http://www.w3.org/2000/svg">
<path id="Vector" d="M5 4.37357H30C30.292 4.37349 30.5838 4.39202 30.8734 4.42904C30.7752 3.7398 30.5385 3.07758 30.1775 2.48231C29.8164 1.88704 29.3386 1.37105 28.7727 0.965448C28.2069 0.559845 27.5648 0.273031 26.8851 0.1223C26.2054 -0.0284315 25.5022 -0.0399588 24.818 0.0884129L4.25781 3.59857H4.23437C2.94381 3.84536 1.79614 4.57554 1.02578 5.63998C2.1864 4.81445 3.57573 4.37173 5 4.37357ZM30 6.24857H5C3.67436 6.25002 2.40343 6.77727 1.46606 7.71463C0.528696 8.652 0.00144754 9.92293 0 11.2486V26.2486C0.00144754 27.5742 0.528696 28.8451 1.46606 29.7825C2.40343 30.7199 3.67436 31.2471 5 31.2486H30C31.3256 31.2471 32.5966 30.7199 33.5339 29.7825C34.4713 28.8451 34.9986 27.5742 35 26.2486V11.2486C34.9986 9.92293 34.4713 8.652 33.5339 7.71463C32.5966 6.77727 31.3256 6.25002 30 6.24857ZM26.2891 21.2486C25.7946 21.2486 25.3113 21.1019 24.9001 20.8272C24.489 20.5525 24.1686 20.1621 23.9794 19.7053C23.7901 19.2485 23.7406 18.7458 23.8371 18.2608C23.9336 17.7759 24.1717 17.3304 24.5213 16.9808C24.8709 16.6312 25.3164 16.3931 25.8013 16.2966C26.2863 16.2001 26.789 16.2497 27.2458 16.4389C27.7026 16.6281 28.093 16.9485 28.3677 17.3596C28.6424 17.7708 28.7891 18.2541 28.7891 18.7486C28.7891 19.4116 28.5257 20.0475 28.0568 20.5163C27.588 20.9852 26.9521 21.2486 26.2891 21.2486Z" fill="var(--fill-0, #E6E6E6)"/>
</svg>
