<svg preserveAspectRatio="none" width="100%" height="100%" overflow="visible" style="display: block;" viewBox="0 0 23.9922 23.9922" fill="none" xmlns="http://www.w3.org/2000/svg">
<g id="WalletIcon">
<path id="Vector" d="M18.9938 6.99773V3.9987C18.9938 3.73357 18.8885 3.4793 18.701 3.29182C18.5136 3.10435 18.2593 2.99903 17.9942 2.99903H4.99838C4.46812 2.99903 3.95957 3.20967 3.58462 3.58462C3.20967 3.95957 2.99903 4.46812 2.99903 4.99838C2.99903 5.52864 3.20967 6.03718 3.58462 6.41213C3.95957 6.78708 4.46812 6.99773 4.99838 6.99773H19.9935C20.2586 6.99773 20.5129 7.10305 20.7004 7.29053C20.8879 7.478 20.9932 7.73227 20.9932 7.9974V11.9961M20.9932 11.9961H17.9942C17.4639 11.9961 16.9554 12.2067 16.5804 12.5817C16.2055 12.9567 15.9948 13.4652 15.9948 13.9955C15.9948 14.5257 16.2055 15.0343 16.5804 15.4092C16.9554 15.7842 17.4639 15.9948 17.9942 15.9948H20.9932C21.2583 15.9948 21.5126 15.8895 21.7001 15.702C21.8875 15.5145 21.9929 15.2603 21.9929 14.9951V12.9958C21.9929 12.7306 21.8875 12.4764 21.7001 12.2889C21.5126 12.1014 21.2583 11.9961 20.9932 11.9961Z" stroke="var(--stroke-0, white)" stroke-width="1.99935" stroke-linecap="round" stroke-linejoin="round"/>
<path id="Vector_2" d="M2.99903 4.99838V18.9938C2.99903 19.5241 3.20967 20.0326 3.58462 20.4076C3.95957 20.7825 4.46812 20.9932 4.99838 20.9932H19.9935C20.2586 20.9932 20.5129 20.8879 20.7004 20.7004C20.8879 20.5129 20.9932 20.2586 20.9932 19.9935V15.9948" stroke="var(--stroke-0, white)" stroke-width="1.99935" stroke-linecap="round" stroke-linejoin="round"/>
</g>
</svg>
