<svg preserveAspectRatio="none" width="100%" height="100%" overflow="visible" style="display: block;" viewBox="0 0 83.9889 59.992" fill="none" xmlns="http://www.w3.org/2000/svg">
<path id="Vector" d="M67.991 19.9973V7.99894C67.991 6.93821 67.5696 5.92093 66.8196 5.17089C66.0695 4.42084 65.0522 3.99947 63.9915 3.99947H11.9984C9.87696 3.99947 7.8424 4.84221 6.3423 6.3423C4.84221 7.8424 3.99947 9.87696 3.99947 11.9984C3.99947 14.1199 4.84221 16.1544 6.3423 17.6545C7.8424 19.1546 9.87696 19.9973 11.9984 19.9973H71.9905C73.0512 19.9973 74.0685 20.4187 74.8185 21.1688C75.5686 21.9188 75.9899 22.9361 75.9899 23.9968V39.9947M75.9899 39.9947H63.9915C61.8701 39.9947 59.8355 40.8374 58.3354 42.3375C56.8353 43.8376 55.9926 45.8722 55.9926 47.9936C55.9926 50.1151 56.8353 52.1496 58.3354 53.6497C59.8355 55.1498 61.8701 55.9926 63.9915 55.9926H75.9899C77.0507 55.9926 78.0679 55.5712 78.818 54.8212C79.568 54.0711 79.9894 53.0538 79.9894 51.9931V43.9942C79.9894 42.9334 79.568 41.9162 78.818 41.1661C78.0679 40.4161 77.0507 39.9947 75.9899 39.9947Z" stroke="var(--stroke-0, #0E6BA8)" stroke-width="7.99894" stroke-linecap="round" stroke-linejoin="round"/>
</svg>
