<svg preserveAspectRatio="none" width="100%" height="100%" overflow="visible" style="display: block;" viewBox="0 0 71.9904 88.0017" fill="none" xmlns="http://www.w3.org/2000/svg">
<path id="Vector" d="M67.991 47.9954C67.991 67.9928 53.9928 77.9915 37.355 83.7907C36.4838 84.0859 35.5374 84.0718 34.6754 83.7507C17.9976 77.9915 3.99947 67.9928 3.99947 47.9954V19.9991C3.99947 18.9384 4.42084 17.9211 5.17089 17.1711C5.92093 16.421 6.93821 15.9997 7.99894 15.9997C15.9979 15.9997 25.9966 11.2003 32.9556 5.12112C33.8029 4.39721 34.8808 3.99947 35.9952 3.99947C37.1097 3.99947 38.1875 4.39721 39.0348 5.12112C46.0339 11.2403 55.9926 15.9997 63.9915 15.9997C65.0522 15.9997 66.0695 16.421 66.8196 17.1711C67.5696 17.9211 67.991 18.9384 67.991 19.9991V47.9954Z" stroke="var(--stroke-0, #0E6BA8)" stroke-width="7.99894" stroke-linecap="round" stroke-linejoin="round"/>
</svg>
