<svg preserveAspectRatio="none" width="100%" height="100%" overflow="visible" style="display: block;" viewBox="0 0 47.9844 47.9844" fill="none" xmlns="http://www.w3.org/2000/svg">
<g id="Wallet">
<path id="Vector" d="M37.9877 13.9955V7.9974C37.9877 7.46714 37.777 6.9586 37.4021 6.58365C37.0271 6.2087 36.5186 5.99805 35.9883 5.99805H9.99675C8.93623 5.99805 7.91915 6.41934 7.16924 7.16924C6.41934 7.91915 5.99805 8.93623 5.99805 9.99675C5.99805 11.0573 6.41934 12.0744 7.16924 12.8243C7.91915 13.5742 8.93623 13.9955 9.99675 13.9955H39.987C40.5173 13.9955 41.0258 14.2061 41.4008 14.5811C41.7757 14.956 41.9864 15.4645 41.9864 15.9948V23.9922M41.9864 23.9922H35.9883C34.9278 23.9922 33.9107 24.4135 33.1608 25.1634C32.4109 25.9133 31.9896 26.9304 31.9896 27.9909C31.9896 29.0514 32.4109 30.0685 33.1608 30.8184C33.9107 31.5683 34.9278 31.9896 35.9883 31.9896H41.9864C42.5166 31.9896 43.0252 31.779 43.4001 31.404C43.7751 31.0291 43.9857 30.5205 43.9857 29.9903V25.9916C43.9857 25.4613 43.7751 24.9528 43.4001 24.5778C43.0252 24.2029 42.5166 23.9922 41.9864 23.9922Z" stroke="var(--stroke-0, white)" stroke-width="3.9987" stroke-linecap="round" stroke-linejoin="round"/>
<path id="Vector_2" d="M5.99805 9.99675V37.9877C5.99805 39.0482 6.41934 40.0653 7.16924 40.8152C7.91915 41.5651 8.93623 41.9864 9.99675 41.9864H39.987C40.5173 41.9864 41.0258 41.7757 41.4008 41.4008C41.7757 41.0258 41.9864 40.5173 41.9864 39.987V31.9896" stroke="var(--stroke-0, white)" stroke-width="3.9987" stroke-linecap="round" stroke-linejoin="round"/>
</g>
</svg>
