<svg preserveAspectRatio="none" width="100%" height="100%" overflow="visible" style="display: block;" viewBox="0 0 18.3254 13.3259" fill="none" xmlns="http://www.w3.org/2000/svg">
<path id="Vector" d="M0.884998 6.95282C0.81558 6.76582 0.81558 6.56011 0.884998 6.3731C1.56109 4.73377 2.70872 3.33209 4.1824 2.34578C5.65607 1.35947 7.38942 0.832935 9.1627 0.832935C10.936 0.832935 12.6693 1.35947 14.143 2.34578C15.6167 3.33209 16.7643 4.73377 17.4404 6.3731C17.5098 6.56011 17.5098 6.76582 17.4404 6.95282C16.7643 8.59216 15.6167 9.99384 14.143 10.9801C12.6693 11.9665 10.936 12.493 9.1627 12.493C7.38942 12.493 5.65607 11.9665 4.1824 10.9801C2.70872 9.99384 1.56109 8.59216 0.884998 6.95282Z" stroke="var(--stroke-0, #99A1AF)" stroke-width="1.66587" stroke-linecap="round" stroke-linejoin="round"/>
</svg>
