<svg preserveAspectRatio="none" width="100%" height="100%" overflow="visible" style="display: block;" viewBox="0 0 33 33" fill="none" xmlns="http://www.w3.org/2000/svg">
<g id="Group">
<path id="Vector" d="M24.8333 16.5H21.5L18.1667 24.8333L14.8333 8.16667L11.5 16.5H8.16667" stroke="var(--stroke-0, white)" stroke-width="3" stroke-linecap="round" stroke-linejoin="round"/>
<path id="Vector_2" d="M1.5 16.5C1.5 9.42833 1.5 5.89333 3.69667 3.69667C5.89333 1.5 9.43 1.5 16.5 1.5C23.57 1.5 27.1067 1.5 29.3033 3.69667C31.5 5.89333 31.5 9.43 31.5 16.5C31.5 23.57 31.5 27.1067 29.3033 29.3033C27.1067 31.5 23.57 31.5 16.5 31.5C9.43 31.5 5.89333 31.5 3.69667 29.3033C1.5 27.1067 1.5 23.57 1.5 16.5Z" stroke="var(--stroke-0, white)" stroke-width="3" stroke-linecap="round" stroke-linejoin="round"/>
</g>
</svg>
