<svg preserveAspectRatio="none" width="100%" height="100%" overflow="visible" style="display: block;" viewBox="0 0 14.5685 19.3796" fill="none" xmlns="http://www.w3.org/2000/svg">
<g id="Group">
<g id="Vector">
</g>
<path id="Vector_2" fill-rule="evenodd" clip-rule="evenodd" d="M1.57953 6.14729C1.57953 4.51693 2.18056 2.95334 3.2504 1.8005C4.32025 0.647659 5.77126 5.81145e-07 7.28425 5.81145e-07C8.79724 5.81145e-07 10.2483 0.647659 11.3181 1.8005C12.3879 2.95334 12.989 4.51693 12.989 6.14729V9.45277L14.4738 12.6529C14.5422 12.8002 14.5745 12.9638 14.5676 13.1283C14.5607 13.2929 14.5149 13.4528 14.4346 13.5928C14.3543 13.7329 14.242 13.8485 14.1085 13.9287C13.975 14.0089 13.8247 14.051 13.6719 14.0509H10.4414C10.2601 14.8046 9.85173 15.4721 9.2803 15.9486C8.70888 16.4251 8.00679 16.6837 7.28425 16.6837C6.56171 16.6837 5.85962 16.4251 5.2882 15.9486C4.71678 15.4721 4.30837 14.8046 4.12709 14.0509H0.89659C0.743766 14.051 0.593474 14.0089 0.459988 13.9287C0.326502 13.8485 0.214254 13.7329 0.133904 13.5928C0.0535552 13.4528 0.00777286 13.2929 0.000905656 13.1283C-0.00596155 12.9638 0.0263144 12.8002 0.0946681 12.6529L1.57953 9.45277V6.14729ZM5.87274 14.0509C6.0158 14.3179 6.22156 14.5396 6.46933 14.6938C6.7171 14.8479 6.99815 14.9291 7.28425 14.9291C7.57035 14.9291 7.85141 14.8479 8.09918 14.6938C8.34695 14.5396 8.5527 14.3179 8.69576 14.0509H5.87274ZM7.28425 1.75637C6.20355 1.75637 5.1671 2.21898 4.40293 3.04244C3.63876 3.8659 3.20945 4.98274 3.20945 6.14729V9.45277C3.20943 9.7253 3.15056 9.99409 3.03749 10.2379L2.08399 12.2946H12.4853L11.5318 10.2379C11.4185 9.99416 11.3593 9.72537 11.3591 9.45277V6.14729C11.3591 4.98274 10.9297 3.8659 10.1656 3.04244C9.4014 2.21898 8.36496 1.75637 7.28425 1.75637Z" fill="var(--fill-0, #E6E6E6)"/>
</g>
</svg>
