<svg preserveAspectRatio="none" width="100%" height="100%" overflow="visible" style="display: block;" viewBox="0 0 5 5" fill="none" xmlns="http://www.w3.org/2000/svg">
<path id="Vector" d="M2.30469 1.51953C2.49867 1.48095 2.70009 1.50048 2.88281 1.57617C3.06539 1.65183 3.22121 1.78005 3.33105 1.94434C3.44094 2.10878 3.5 2.30222 3.5 2.5C3.5 2.76522 3.39457 3.01949 3.20703 3.20703C3.01949 3.39457 2.76522 3.5 2.5 3.5C2.30222 3.5 2.10878 3.44094 1.94434 3.33105C1.78005 3.22121 1.65183 3.06539 1.57617 2.88281C1.50048 2.70009 1.48095 2.49867 1.51953 2.30469C1.55815 2.11081 1.65318 1.93276 1.79297 1.79297C1.93276 1.65318 2.11081 1.55815 2.30469 1.51953Z" fill="var(--fill-0, #E6E6E6)" stroke="var(--stroke-0, white)" stroke-width="3"/>
</svg>
