<svg preserveAspectRatio="none" width="100%" height="100%" overflow="visible" style="display: block;" viewBox="0 0 22.0633 21.4817" fill="none" xmlns="http://www.w3.org/2000/svg">
<path id="Vector" d="M4.81534 12.1479L11.757 19.0896C12.0403 19.3729 12.1763 19.7035 12.165 20.0813C12.1537 20.459 12.0059 20.7896 11.7216 21.0729C11.4383 21.3326 11.1077 21.4686 10.7299 21.4809C10.3521 21.4932 10.0216 21.3572 9.73825 21.0729L0.388253 11.7229C0.246587 11.5813 0.146004 11.4278 0.0865037 11.2625C0.0270037 11.0972 -0.00180171 10.9201 8.718e-05 10.7313C0.00197607 10.5424 0.0317257 10.3653 0.0893368 10.2C0.146948 10.0347 0.24706 9.88125 0.389671 9.73958L9.73967 0.389583C9.99939 0.129861 10.3243 0 10.7143 0C11.1044 0 11.4406 0.129861 11.723 0.389583C12.0063 0.672916 12.148 1.00961 12.148 1.39967C12.148 1.78972 12.0063 2.12594 11.723 2.40833L4.81534 9.31458H20.6466C21.048 9.31458 21.3847 9.45058 21.6567 9.72258C21.9287 9.99458 22.0642 10.3308 22.0633 10.7313C22.0623 11.1317 21.9263 11.4684 21.6553 11.7413C21.3842 12.0143 21.048 12.1498 20.6466 12.1479H4.81534Z" fill="var(--fill-0, #000314)"/>
</svg>
