<svg preserveAspectRatio="none" width="100%" height="100%" overflow="visible" style="display: block;" viewBox="0 0 13.9975 20.002" fill="none" xmlns="http://www.w3.org/2000/svg">
<path id="Vector" d="M9.49982 2H9.50482ZM9.49982 2L6.99982 8L11.9998 10.898L4.49982 18L6.99982 12L1.99982 9.1L9.49982 2ZM9.49982 9.18826e-07C8.98687 0.00191444 8.49386 0.198905 8.12082 0.551001L0.623825 7.646C0.397962 7.86018 0.225207 8.12412 0.119309 8.41682C0.0134098 8.70951 -0.0227096 9.02289 0.0138245 9.332C0.0858245 9.958 0.450824 10.514 0.995824 10.83L4.47782 12.851L2.65182 17.232C2.52578 17.5361 2.47662 17.8665 2.50868 18.1941C2.54074 18.5217 2.65304 18.8363 2.83565 19.1102C3.01826 19.3841 3.26554 19.6087 3.55563 19.7642C3.84572 19.9198 4.16967 20.0015 4.49882 20.002C4.99682 20.002 5.49182 19.816 5.87382 19.454L13.3738 12.351C13.5995 12.1369 13.7722 11.8732 13.8781 11.5806C13.984 11.2881 14.0202 10.975 13.9838 10.666C13.9478 10.3572 13.8404 10.061 13.6699 9.80092C13.4994 9.54089 13.2707 9.32418 13.0018 9.168L9.51982 7.15L11.3088 2.857C11.4535 2.55201 11.5186 2.21537 11.498 1.87845C11.4775 1.54152 11.3721 1.21527 11.1915 0.930079C11.0109 0.64489 10.7611 0.410045 10.4653 0.247419C10.1695 0.0847931 9.83737 -0.000322602 9.49982 9.18826e-07Z" fill="var(--fill-0, black)"/>
</svg>
